<svg xmlns="http://www.w3.org/2000/svg" version="1.1" xmlns:xlink="http://www.w3.org/1999/xlink" xmlns:svgjs="http://svgjs.dev/svgjs" viewBox="0 0 1422 800" opacity="0.42"><g stroke-width="1" stroke="#518a62" fill="none" stroke-linecap="round"><path d="M 0 798 Q 355.5 215 711 400 Q 1066.5 585 1422 798" stroke-dasharray="2 3" opacity="1.00"></path><path d="M 0 779 Q 355.5 215 711 400 Q 1066.5 585 1422 779" stroke-dasharray="4 1" opacity="0.98"></path><path d="M 0 760 Q 355.5 215 711 400 Q 1066.5 585 1422 760" stroke-dasharray="2 0" opacity="0.95"></path><path d="M 0 741 Q 355.5 215 711 400 Q 1066.5 585 1422 741" stroke-dasharray="2 5" opacity="0.93"></path><path d="M 0 722 Q 355.5 215 711 400 Q 1066.5 585 1422 722" stroke-dasharray="0 4" opacity="0.91"></path><path d="M 0 703 Q 355.5 215 711 400 Q 1066.5 585 1422 703" stroke-dasharray="4 4" opacity="0.88"></path><path d="M 0 684 Q 355.5 215 711 400 Q 1066.5 585 1422 684" stroke-dasharray="2 3" opacity="0.86"></path><path d="M 0 665 Q 355.5 215 711 400 Q 1066.5 585 1422 665" stroke-dasharray="3 4" opacity="0.84"></path><path d="M 0 646 Q 355.5 215 711 400 Q 1066.5 585 1422 646" stroke-dasharray="1 4" opacity="0.81"></path><path d="M 0 627 Q 355.5 215 711 400 Q 1066.5 585 1422 627" stroke-dasharray="4 5" opacity="0.79"></path><path d="M 0 608 Q 355.5 215 711 400 Q 1066.5 585 1422 608" stroke-dasharray="4 4" opacity="0.77"></path><path d="M 0 589 Q 355.5 215 711 400 Q 1066.5 585 1422 589" stroke-dasharray="4 1" opacity="0.75"></path><path d="M 0 570 Q 355.5 215 711 400 Q 1066.5 585 1422 570" stroke-dasharray="4 4" opacity="0.72"></path><path d="M 0 551 Q 355.5 215 711 400 Q 1066.5 585 1422 551" stroke-dasharray="1 3" opacity="0.70"></path><path d="M 0 532 Q 355.5 215 711 400 Q 1066.5 585 1422 532" stroke-dasharray="4 4" opacity="0.68"></path><path d="M 0 513 Q 355.5 215 711 400 Q 1066.5 585 1422 513" stroke-dasharray="3 3" opacity="0.65"></path><path d="M 0 494 Q 355.5 215 711 400 Q 1066.5 585 1422 494" stroke-dasharray="2 3" opacity="0.63"></path><path d="M 0 475 Q 355.5 215 711 400 Q 1066.5 585 1422 475" stroke-dasharray="2 5" opacity="0.61"></path><path d="M 0 456 Q 355.5 215 711 400 Q 1066.5 585 1422 456" stroke-dasharray="4 4" opacity="0.58"></path><path d="M 0 437 Q 355.5 215 711 400 Q 1066.5 585 1422 437" stroke-dasharray="2 2" opacity="0.56"></path><path d="M 0 418 Q 355.5 215 711 400 Q 1066.5 585 1422 418" stroke-dasharray="5 5" opacity="0.54"></path><path d="M 0 399 Q 355.5 215 711 400 Q 1066.5 585 1422 399" stroke-dasharray="3 2" opacity="0.51"></path><path d="M 0 380 Q 355.5 215 711 400 Q 1066.5 585 1422 380" stroke-dasharray="1 1" opacity="0.49"></path><path d="M 0 361 Q 355.5 215 711 400 Q 1066.5 585 1422 361" stroke-dasharray="4 0" opacity="0.47"></path><path d="M 0 342 Q 355.5 215 711 400 Q 1066.5 585 1422 342" stroke-dasharray="4 4" opacity="0.44"></path><path d="M 0 323 Q 355.5 215 711 400 Q 1066.5 585 1422 323" stroke-dasharray="3 1" opacity="0.42"></path><path d="M 0 304 Q 355.5 215 711 400 Q 1066.5 585 1422 304" stroke-dasharray="1 2" opacity="0.40"></path><path d="M 0 285 Q 355.5 215 711 400 Q 1066.5 585 1422 285" stroke-dasharray="3 2" opacity="0.37"></path><path d="M 0 266 Q 355.5 215 711 400 Q 1066.5 585 1422 266" stroke-dasharray="5 3" opacity="0.35"></path><path d="M 0 247 Q 355.5 215 711 400 Q 1066.5 585 1422 247" stroke-dasharray="4 3" opacity="0.33"></path><path d="M 0 228 Q 355.5 215 711 400 Q 1066.5 585 1422 228" stroke-dasharray="4 3" opacity="0.30"></path><path d="M 0 209 Q 355.5 215 711 400 Q 1066.5 585 1422 209" stroke-dasharray="2 3" opacity="0.28"></path><path d="M 0 190 Q 355.5 215 711 400 Q 1066.5 585 1422 190" stroke-dasharray="2 2" opacity="0.26"></path><path d="M 0 171 Q 355.5 215 711 400 Q 1066.5 585 1422 171" stroke-dasharray="2 3" opacity="0.24"></path><path d="M 0 152 Q 355.5 215 711 400 Q 1066.5 585 1422 152" stroke-dasharray="5 3" opacity="0.21"></path><path d="M 0 133 Q 355.5 215 711 400 Q 1066.5 585 1422 133" stroke-dasharray="1 5" opacity="0.19"></path><path d="M 0 114 Q 355.5 215 711 400 Q 1066.5 585 1422 114" stroke-dasharray="4 2" opacity="0.17"></path><path d="M 0 95 Q 355.5 215 711 400 Q 1066.5 585 1422 95" stroke-dasharray="5 2" opacity="0.14"></path><path d="M 0 76 Q 355.5 215 711 400 Q 1066.5 585 1422 76" stroke-dasharray="3 0" opacity="0.12"></path><path d="M 0 57 Q 355.5 215 711 400 Q 1066.5 585 1422 57" stroke-dasharray="2 1" opacity="0.10"></path><path d="M 0 38 Q 355.5 215 711 400 Q 1066.5 585 1422 38" stroke-dasharray="3 0" opacity="0.07"></path></g></svg>