<svg xmlns="http://www.w3.org/2000/svg" version="1.1" xmlns:xlink="http://www.w3.org/1999/xlink" xmlns:svgjs="http://svgjs.dev/svgjs" viewBox="0 0 1422 800" opacity="0.55"><g stroke-width="1" stroke="#4f885f" fill="none" stroke-linecap="round"><path d="M 0 966 Q 355.5 40 711 400 Q 1066.5 760 1422 966" opacity="0.42"></path><path d="M 0 943 Q 355.5 40 711 400 Q 1066.5 760 1422 943" opacity="0.37"></path><path d="M 0 920 Q 355.5 40 711 400 Q 1066.5 760 1422 920" opacity="0.26"></path><path d="M 0 897 Q 355.5 40 711 400 Q 1066.5 760 1422 897" opacity="0.37"></path><path d="M 0 874 Q 355.5 40 711 400 Q 1066.5 760 1422 874" opacity="0.45"></path><path d="M 0 851 Q 355.5 40 711 400 Q 1066.5 760 1422 851" opacity="0.54"></path><path d="M 0 828 Q 355.5 40 711 400 Q 1066.5 760 1422 828" opacity="0.97"></path><path d="M 0 805 Q 355.5 40 711 400 Q 1066.5 760 1422 805" opacity="0.80"></path><path d="M 0 782 Q 355.5 40 711 400 Q 1066.5 760 1422 782" opacity="0.87"></path><path d="M 0 759 Q 355.5 40 711 400 Q 1066.5 760 1422 759" opacity="0.41"></path><path d="M 0 736 Q 355.5 40 711 400 Q 1066.5 760 1422 736" opacity="0.73"></path><path d="M 0 713 Q 355.5 40 711 400 Q 1066.5 760 1422 713" opacity="0.94"></path><path d="M 0 690 Q 355.5 40 711 400 Q 1066.5 760 1422 690" opacity="0.27"></path><path d="M 0 667 Q 355.5 40 711 400 Q 1066.5 760 1422 667" opacity="0.13"></path><path d="M 0 644 Q 355.5 40 711 400 Q 1066.5 760 1422 644" opacity="0.91"></path><path d="M 0 621 Q 355.5 40 711 400 Q 1066.5 760 1422 621" opacity="0.21"></path><path d="M 0 598 Q 355.5 40 711 400 Q 1066.5 760 1422 598" opacity="0.14"></path><path d="M 0 575 Q 355.5 40 711 400 Q 1066.5 760 1422 575" opacity="0.88"></path><path d="M 0 552 Q 355.5 40 711 400 Q 1066.5 760 1422 552" opacity="0.67"></path><path d="M 0 529 Q 355.5 40 711 400 Q 1066.5 760 1422 529" opacity="0.28"></path><path d="M 0 506 Q 355.5 40 711 400 Q 1066.5 760 1422 506" opacity="0.46"></path><path d="M 0 483 Q 355.5 40 711 400 Q 1066.5 760 1422 483" opacity="0.84"></path><path d="M 0 460 Q 355.5 40 711 400 Q 1066.5 760 1422 460" opacity="0.95"></path><path d="M 0 437 Q 355.5 40 711 400 Q 1066.5 760 1422 437" opacity="0.68"></path><path d="M 0 414 Q 355.5 40 711 400 Q 1066.5 760 1422 414" opacity="0.92"></path><path d="M 0 391 Q 355.5 40 711 400 Q 1066.5 760 1422 391" opacity="0.55"></path><path d="M 0 368 Q 355.5 40 711 400 Q 1066.5 760 1422 368" opacity="0.59"></path><path d="M 0 345 Q 355.5 40 711 400 Q 1066.5 760 1422 345" opacity="0.87"></path><path d="M 0 322 Q 355.5 40 711 400 Q 1066.5 760 1422 322" opacity="0.38"></path><path d="M 0 299 Q 355.5 40 711 400 Q 1066.5 760 1422 299" opacity="0.45"></path><path d="M 0 276 Q 355.5 40 711 400 Q 1066.5 760 1422 276" opacity="0.15"></path><path d="M 0 253 Q 355.5 40 711 400 Q 1066.5 760 1422 253" opacity="0.77"></path><path d="M 0 230 Q 355.5 40 711 400 Q 1066.5 760 1422 230" opacity="0.81"></path><path d="M 0 207 Q 355.5 40 711 400 Q 1066.5 760 1422 207" opacity="0.50"></path><path d="M 0 184 Q 355.5 40 711 400 Q 1066.5 760 1422 184" opacity="0.81"></path><path d="M 0 161 Q 355.5 40 711 400 Q 1066.5 760 1422 161" opacity="0.29"></path><path d="M 0 138 Q 355.5 40 711 400 Q 1066.5 760 1422 138" opacity="0.61"></path><path d="M 0 115 Q 355.5 40 711 400 Q 1066.5 760 1422 115" opacity="0.26"></path><path d="M 0 92 Q 355.5 40 711 400 Q 1066.5 760 1422 92" opacity="0.41"></path><path d="M 0 69 Q 355.5 40 711 400 Q 1066.5 760 1422 69" opacity="0.44"></path><path d="M 0 46 Q 355.5 40 711 400 Q 1066.5 760 1422 46" opacity="0.83"></path></g></svg>