<svg xmlns="http://www.w3.org/2000/svg" version="1.1" xmlns:xlink="http://www.w3.org/1999/xlink" viewBox="0 0 700 700" style="overflow: hidden; display: block;" width="700" height="700"><defs></defs><g id="two-0" transform="matrix(1 0 0 1 0 0)" opacity="1"><path transform="matrix(1 0 0 1 350 350)" id="two-202" d="M 204.151099 74.304923 C 191.371974 103.77946 212.97555 140.647955 204.569669 171.654333 C 195.515842 205.050758 173.290991 235.272769 151.221054 261.922549 C 125.733594 292.699039 99.571289 349.174878 60.282718 341.880285 C -2.798751 330.168135 12.144902 218.09688 -29.913002 169.64506 C -42.721876 154.888898 -58.836979 138.967979 -77.985065 135.074094 C -115.638255 127.417078 -157.720764 178.941703 -191.557877 160.736143 C -216.414196 147.362566 -206.749965 104.607936 -221.797076 80.727533 C -241.449489 49.538319 -294.657339 36.606212 -299.012757 0 C -303.063517 -34.045637 -257.195702 -57.157023 -246.819988 -89.835129 C -235.877811 -124.297299 -254.937327 -167.506611 -237.128149 -198.974143 C -219.823139 -229.550846 -185.043364 -252.727229 -151.059256 -261.642306 C -116.630885 -270.673926 -79.01052 -255.144782 -43.928732 -249.132214 C -15.753165 -244.303284 12.171381 -233.41758 40.547302 -229.955178 C 70.422526 -226.309832 108.389902 -247.165674 131.732203 -228.166869 C 157.653623 -207.068862 134.079617 -156.079536 154.235594 -129.419031 C 172.489486 -105.274432 213.056693 -106.569128 234.721821 -85.431757 C 258.039474 -62.682114 289.016596 -32.216796 284.185731 -0.000001 C 278.841449 35.640752 218.487002 41.239738 204.151099 74.304923 Z " fill="#CFB4FA" stroke="undefined" stroke-width="1" stroke-opacity="1" fill-opacity="1" visibility="visible" stroke-linecap="butt" stroke-linejoin="miter" stroke-miterlimit="4"></path></g></svg>