<?xml version="1.0" encoding="utf-8"?>
<!-- Generator: Adobe Illustrator 26.5.0, SVG Export Plug-In . SVG Version: 6.00 Build 0)  -->
<svg version="1.1" id="Layer_1" xmlns="http://www.w3.org/2000/svg" xmlns:xlink="http://www.w3.org/1999/xlink" x="0px" y="0px"
	 viewBox="0 0 700 700" style="enable-background:new 0 0 700 700;" xml:space="preserve">
<g id="two-0" transform="matrix(1 0 0 1 0 0)">
	<g>
		<defs>
			<path id="two-202" d="M567.4,389.3c-12.8,29.5,8.8,66.3,0.4,97.3c-9.1,33.4-31.3,63.6-53.3,90.3c-25.5,30.8-51.6,87.3-90.9,80
				c-63.1-11.7-48.1-123.8-90.2-172.2c-12.8-14.8-28.9-30.7-48.1-34.6c-37.7-7.7-79.7,43.9-113.6,25.7c-24.9-13.4-15.2-56.1-30.2-80
				c-19.7-31.2-72.9-44.1-77.2-80.7c-4.1-34,41.8-57.2,52.2-89.8c10.9-34.5-8.1-77.7,9.7-109.1c17.3-30.6,52.1-53.8,86.1-62.7
				c34.4-9,72,6.5,107.1,12.5c28.2,4.8,56.1,15.7,84.5,19.2c29.9,3.6,67.8-17.2,91.2,1.8c25.9,21.1,2.3,72.1,22.5,98.7
				c18.3,24.1,58.8,22.8,80.5,44c23.3,22.7,54.3,53.2,49.5,85.4C642.1,350.6,581.8,356.2,567.4,389.3z"/>
		</defs>
		<clipPath id="two-202_00000145051720926309538490000005703177951079735203_">
			<use xlink:href="#two_x002D_202"  style="overflow:visible;"/>
		</clipPath>
		<g style="clip-path:url(#two-202_00000145051720926309538490000005703177951079735203_);">
			
				<image style="overflow:visible;" width="879" height="968" xlink:href="rebecca3-kopi.jpg"  transform="matrix(0.6606 0 0 0.6606 65.3239 18.0479)">
			</image>
		</g>
	</g>
</g>
</svg>
